<svg width="400" height="300" viewBox="0 0 400 300" xmlns="http://www.w3.org/2000/svg">
  <!-- Background -->
  <rect width="400" height="300" fill="#ffffff"/>
  
  <!-- Brutalist geometric shapes -->
  <rect x="20" y="20" width="80" height="80" fill="#000000" stroke="#ffffff" stroke-width="4"/>
  <rect x="300" y="200" width="60" height="60" fill="#000000" stroke="#ffffff" stroke-width="4"/>
  <rect x="200" y="50" width="40" height="40" fill="#000000" stroke="#ffffff" stroke-width="4" transform="rotate(45 220 70)"/>
  
  <!-- Kitchen elements - brutalist style -->
  <rect x="80" y="120" width="240" height="20" fill="#000000" stroke="#ffffff" stroke-width="3"/>
  <rect x="100" y="160" width="200" height="80" fill="#000000" stroke="#ffffff" stroke-width="3"/>
  <rect x="120" y="180" width="30" height="30" fill="#ffffff"/>
  <rect x="170" y="180" width="30" height="30" fill="#ffffff"/>
  <rect x="220" y="180" width="30" height="30" fill="#ffffff"/>
  <rect x="270" y="180" width="30" height="30" fill="#ffffff"/>
  
  <!-- Stove elements -->
  <rect x="120" y="220" width="20" height="20" fill="#ffffff"/>
  <rect x="150" y="220" width="20" height="20" fill="#ffffff"/>
  <rect x="180" y="220" width="20" height="20" fill="#ffffff"/>
  <rect x="210" y="220" width="20" height="20" fill="#ffffff"/>
  
  <!-- Text -->
  <text x="200" y="50" text-anchor="middle" font-family="Courier New, monospace" font-size="24" font-weight="900" fill="#000000">KITCHEN</text>
</svg>
